<?xml version="1.0" encoding="utf-8"?>
<!-- Generator: Adobe Illustrator 16.0.0, SVG Export Plug-In . SVG Version: 6.00 Build 0)  -->
<!DOCTYPE svg PUBLIC "-//W3C//DTD SVG 1.1//EN" "http://www.w3.org/Graphics/SVG/1.1/DTD/svg11.dtd">
<svg version="1.1" id="Layer_1" xmlns="http://www.w3.org/2000/svg" xmlns:xlink="http://www.w3.org/1999/xlink" x="0px" y="0px"
	 width="208.063px" height="41.387px" viewBox="0 0 208.063 41.387" enable-background="new 0 0 208.063 41.387"
	 xml:space="preserve">
<g>
	<path fill="#ED1C24" d="M101.283,8.611c-1.405,0-1.88,0.476-1.88,1.883c0,1.425,0.456,1.883,1.88,1.883
		c1.421,0,1.877-0.458,1.877-1.883C103.161,9.087,102.687,8.611,101.283,8.611"/>
	<rect x="99.724" y="14.039" fill="#ED1C24" width="3.142" height="13.987"/>
	<path fill="#ED1C24" d="M91.13,13.856c-0.916,0-1.978,0.127-2.926,0.353V8.708h-3.12v15.668c0,0.918,0.039,1.701,0.121,2.548
		l0.003,0.048l0.042,0.021c1.373,0.776,3.367,1.222,5.469,1.222c4.762,0,6.533-1.946,6.533-7.186
		C97.252,15.866,95.536,13.856,91.13,13.856 M94.102,21.03c0,2.687-0.248,4.742-3.383,4.742c-0.951,0-1.899-0.171-2.436-0.438
		c-0.052-0.474-0.08-1.093-0.08-1.796v-6.86c0.667-0.219,1.557-0.363,2.236-0.363C94.102,16.314,94.102,18.395,94.102,21.03"/>
	<path fill="#ED1C24" d="M76.692,13.856c-4.544,0-6.235,1.943-6.235,7.174c0,5.238,1.69,7.186,6.235,7.186
		c4.491,0,6.242-2.016,6.242-7.186C82.933,15.866,81.183,13.856,76.692,13.856 M79.799,21.03c0,3.659-0.667,4.662-3.106,4.662
		c-2.479,0-3.085-0.915-3.085-4.662c0-3.738,0.607-4.651,3.085-4.651C79.131,16.379,79.799,17.378,79.799,21.03"/>
	<path fill="#ED1C24" d="M63.259,13.856c-1.487,0-3.061,0.304-4.439,0.855c-0.812-0.575-1.936-0.855-3.435-0.855
		c-2.073,0-4.236,0.453-5.785,1.212l-0.044,0.021l-0.005,0.052c-0.083,0.85-0.121,1.638-0.121,2.55v10.334h3.119v-9.438
		c0-0.701,0.027-1.318,0.079-1.793c0.502-0.245,1.366-0.427,2.034-0.427c2.216,0,2.636,1.066,2.636,3.032v8.627h3.129v-8.941
		c0-0.871-0.069-1.558-0.214-2.156c0.742-0.386,1.696-0.561,2.326-0.561c2.217,0,2.637,1.066,2.637,3.032v8.627h3.129v-8.941
		C68.306,16.368,67.693,13.856,63.259,13.856"/>
	<path fill="#ED1C24" d="M160.361,13.856c-4.545,0-6.235,1.943-6.235,7.174c0,4.969,1.834,7.186,5.943,7.186
		c2.578,0,4.365-0.249,5.974-0.504l0.086-0.013l-0.268-2.37l-0.091,0.012c-1.304,0.164-3.044,0.352-4.944,0.352
		c-2.024,0-3.411-0.53-3.586-3.102l2.338-0.104c1.956-0.088,5.262-0.426,6.803-0.692l0.071-0.013l0.004-0.071
		c0.021-0.353,0.034-0.696,0.034-1.025C166.49,16.584,165.446,13.856,160.361,13.856 M163.52,19.409c0,0.161-0.006,0.4-0.021,0.569
		c-0.968,0.128-2.518,0.251-3.484,0.298l-2.682,0.125c0.011-2.627,0.557-4.146,3.214-4.146
		C162.631,16.254,163.52,17.198,163.52,19.409"/>
	<path fill="#ED1C24" d="M182.468,13.856c-1.487,0-3.061,0.304-4.438,0.855c-0.813-0.575-1.936-0.855-3.435-0.855
		c-2.067,0-4.229,0.453-5.785,1.212l-0.044,0.021l-0.005,0.052c-0.083,0.905-0.121,1.691-0.121,2.55v10.334h3.119v-9.438
		c0-0.701,0.026-1.319,0.079-1.793c0.498-0.245,1.36-0.427,2.033-0.427c2.223,0,2.642,1.066,2.642,3.032v8.627h3.129v-8.941
		c0-0.871-0.067-1.558-0.213-2.156c0.739-0.386,1.693-0.561,2.326-0.561c2.211,0,2.631,1.066,2.631,3.032v8.627h3.13v-8.941
		C187.516,16.368,186.903,13.856,182.468,13.856"/>
	<path fill="#ED1C24" d="M151.738,25.719l-0.088,0.006c-0.407,0.023-0.729,0.036-1.042,0.036c-1.287,0-1.743-0.434-1.743-1.653
		v-7.702h2.86v-2.367h-2.86v-3.915l-3.144,0.509v3.405h-2.332v2.367h2.332v7.951c0,2.633,1.297,3.858,4.078,3.858
		c0.574,0,1.359-0.076,2.101-0.209l0.082-0.013l-0.234-2.189L151.738,25.719z"/>
	<path fill="#ED1C24" d="M196.091,19.827l-0.421-0.14v-0.002c-0.165-0.056-0.342-0.107-0.521-0.162
		c-1.047-0.314-2.233-0.67-2.233-1.842c0-1.318,1.891-1.318,3.02-1.318c1.282,0,2.452,0.185,3.43,0.366l0.094,0.017l0.294-2.254
		l0.01-0.082l-0.081-0.019c-1.712-0.387-3.091-0.537-4.921-0.537c-3.34,0-4.963,1.305-4.963,3.987c0,2.97,2.061,3.594,4.243,4.253
		l0.152,0.047c0.181,0.056,0.364,0.104,0.548,0.154c1.119,0.309,2.088,0.571,2.088,1.869c0,0.65-0.354,1.075-1.081,1.3
		c-0.628,0.194-1.395,0.2-1.95,0.193h-0.073c-1.12,0-2.647-0.188-3.668-0.378l-0.093-0.018l-0.301,2.383l0.075,0.021
		c1.361,0.338,3.198,0.548,4.795,0.548c3.679,0,5.469-1.36,5.469-4.161C200,21.132,198.275,20.556,196.091,19.827"/>
	<path fill="#ED1C24" d="M137.333,19.827l-0.422-0.14v-0.002c-0.164-0.056-0.343-0.107-0.521-0.162
		c-1.049-0.314-2.234-0.669-2.234-1.842c0-1.318,1.89-1.318,3.018-1.318c1.291,0,2.511,0.195,3.43,0.366l0.094,0.017l0.293-2.254
		l0.011-0.082l-0.079-0.019c-1.713-0.387-3.092-0.537-4.923-0.537c-3.339,0-4.962,1.305-4.962,3.987
		c0,2.967,2.054,3.591,4.227,4.252l0.158,0.048c0.182,0.056,0.367,0.104,0.55,0.155c1.126,0.308,2.097,0.573,2.097,1.868
		c0,0.65-0.354,1.075-1.087,1.3c-0.603,0.186-1.325,0.193-1.875,0.193h-0.081h-0.073c-1.11,0-2.637-0.188-3.655-0.378l-0.093-0.018
		l-0.303,2.383l0.076,0.021c1.361,0.338,3.198,0.548,4.794,0.548c3.682,0,5.471-1.36,5.471-4.161
		C141.24,21.132,139.517,20.556,137.333,19.827"/>
	<polygon fill="#ED1C24" points="123.654,23.094 119.956,14.095 119.934,14.039 116.626,14.039 122.24,27.01 120.115,32.993 
		120.069,33.112 123.243,33.112 129.689,14.159 129.729,14.039 126.557,14.039 	"/>
	<path fill="#ED1C24" d="M111.738,19.827l-0.422-0.14v-0.002c-0.165-0.056-0.344-0.107-0.523-0.163
		c-1.049-0.314-2.238-0.67-2.238-1.841c0-1.318,1.892-1.318,3.021-1.318c1.295,0,2.516,0.195,3.435,0.366l0.095,0.017l0.292-2.254
		l0.011-0.082l-0.08-0.019c-1.711-0.387-3.092-0.537-4.928-0.537c-3.34,0-4.962,1.305-4.962,3.987c0,2.969,2.058,3.592,4.233,4.252
		l0.156,0.048c0.182,0.056,0.364,0.104,0.548,0.154c1.127,0.309,2.099,0.571,2.099,1.869c0,0.65-0.354,1.075-1.085,1.3
		c-0.603,0.186-1.325,0.193-1.878,0.193h-0.08h-0.074c-1.106,0-2.637-0.188-3.66-0.378l-0.095-0.018l-0.296,2.383l0.077,0.021
		c1.355,0.338,3.19,0.548,4.789,0.548c3.684,0,5.475-1.36,5.475-4.161C115.645,21.131,113.92,20.556,111.738,19.827"/>
	<path fill="#ED1C24" d="M41.385,1.035c0,0,0-1.034-1.034-1.034H1.036C1.036,0,0.001,0,0.001,1.035v39.314c0,0,0,1.036,1.035,1.036
		H40.35c0,0,1.034,0,1.034-1.036V1.035z"/>
	<path fill="#FFFFFF" d="M28.331,23.233c-0.732,0.729-0.732,1.764-0.732,1.764v1.926c0,1.034,1.034,1.034,1.034,1.034h4.809
		c1.034,0,1.034-1.034,1.034-1.034v-8.802c0-1.035-0.729-0.304-0.729-0.304L28.331,23.233z M6.941,18.121v8.802
		c0,0,0,1.034,1.033,1.034h4.81c0,0,1.033,0,1.033-1.034v-1.926c0,0,0-1.033-0.73-1.764l-5.415-5.416
		C7.672,17.817,6.941,17.086,6.941,18.121 M36.889,10.729h-4.824c0,0-1.033,0-1.763,0.729l-4.005,4.005
		c-0.73,0.73-0.728,0.735-0.728,0.735l0.004,0.003l-3.485,3.485h-0.022l-0.644,0.644c0,0-0.731,0.73-1.461,0l-0.645-0.644h-0.001
		l-2.753-2.753c-0.73-0.731-0.727-0.734-0.727-0.734l0.001-0.002c0,0,0.002-0.002-0.342-0.345l-1.398-1.399
		c0,0-0.73-0.729-1.765-0.729H7.51c0,0-1.034,0-0.302,0.729l8.633,8.632l-0.004,0.004c0,0-0.004,0.006,0.726,0.735l1.601,1.599
		H18.15l1.804,1.805c0.73,0.731,1.462,0,1.462,0l1.27-1.271h0.022l2.863-2.862l-0.003-0.006c0,0-0.004-0.004,0.728-0.733
		l10.896-10.896C37.191,11.459,37.924,10.729,36.889,10.729"/>
</g>
</svg>
